<?xml version="1.0" encoding="utf-8"?>
<!-- Generator: Adobe Illustrator 23.0.1, SVG Export Plug-In . SVG Version: 6.00 Build 0)  -->
<svg version="1.1" id="Layer_1" xmlns="http://www.w3.org/2000/svg" xmlns:xlink="http://www.w3.org/1999/xlink" x="0px" y="0px"
	 viewBox="0 0 338 444.9" style="enable-background:new 0 0 338 444.9;" xml:space="preserve">
<style type="text/css">
	.st0{fill:#ED1C6B;}
	.st1{fill:#FFFFFF;}
	.st2{fill:#41109C;}
</style>
<g>
	<path class="st0" d="M120.1,0L120.1,0c33.5,0,61,27.4,61,61v323c0,33.5-27.4,61-61,61l0,0c-33.5,0-61-27.4-61-61V61
		C59.1,27.5,86.6,0,120.1,0"/>
	<path class="st1" d="M329.8,67.2L329.8,67.2c16.8,29,6.7,66.5-22.3,83.3l-124.7,72l124.7,72c29,16.8,39.1,54.2,22.3,83.3
		c-16.8,29-54.2,39.1-83.3,22.3L30.4,275.3c-4.7-2.7-9-6-12.7-9.7l-0.6-0.6l-0.1-0.1c-3.4-3.5-6.5-7.5-9-11.9
		c-5.4-9.6-8-20.1-8-30.5s2.6-20.9,8.1-30.5c2.6-4.4,5.6-8.4,9-11.9l0.1-0.1l0.6-0.6c3.7-3.7,7.9-7,12.7-9.7L246.6,44.9
		C275.6,28.2,313.1,38.2,329.8,67.2"/>
</g>
<polygon class="st2" points="59.1,291.9 181.1,362.3 181.1,82.7 59.1,153.1 "/>
</svg>
